# xmcd
#
# Track frame offsets:
#       150
#       20770
#       33874
#       50772
#       62457
#       81479
#       93630
#       105557
#       120951
#       137861
#       151259
#       155609
#       166395
#       177286
#       187330
#
# Disc length: 2862 seconds
#
# Revision: 1
# Processed by: cddbd v1.5.1PL0 Copyright (c) Steve Scherf et al.
# Submitted via: MusiCat 1.1
#
DISCID=ca0b2c0f
DTITLE=Dr. Hook - Dr. Hook - The Collection - CD 2
DYEAR=1900
DGENRE=
TTITLE0=Sylvia´s Mother (Live)
TTITLE1=Sharing The Night Together
TTITLE2=Dooley Jones
TTITLE3=Sexy Energy
TTITLE4=Cover Of The Rolling Stone (Live)
TTITLE5=I Don´t Feel Much Like Smilin´
TTITLE6=Everybody Loves Me
TTITLE7=I Got Stones (And I Missed It)
TTITLE8=When You´re In Love With A Beautyful Woman (Live)
TTITLE9=Angela´s Eyes
TTITLE10=Do Downs
TTITLE11=Bad Eye Bill
TTITLE12=Wups
TTITLE13=Bubblin´ Up
TTITLE14=Oo Poo Pa Doo (Live)
EXTD=\n\n
EXTT0=
EXTT1=
EXTT2=
EXTT3=
EXTT4=
EXTT5=
EXTT6=
EXTT7=
EXTT8=
EXTT9=
EXTT10=
EXTT11=
EXTT12=
EXTT13=
EXTT14=
PLAYORDER=
